<svg version="1.0" xmlns="http://www.w3.org/2000/svg"
    width="1024" height="1024" viewBox="0 0 1024 1024"
    preserveAspectRatio="xMidYMid meet"
    fill="oklch(51.1% 0.262 276.966)"
>
    <g transform="translate(0.000000,1024.000000) scale(0.100000,-0.100000)">
        <path d="M451 8732 c-19 -9 -44 -30 -55 -45 -20 -27 -21 -41 -19 -200 4 -327
        50 -555 159 -783 72 -151 136 -238 286 -385 l139 -137 -73 -17 c-101 -25 -138
        -61 -138 -135 0 -102 90 -327 190 -475 129 -192 265 -297 515 -400 50 -20 94
        -40 98 -45 5 -4 -5 -17 -21 -29 -36 -25 -72 -95 -72 -138 0 -110 121 -288 275
        -404 116 -87 347 -178 559 -218 121 -23 292 -45 479 -62 75 -7 137 -14 137
        -15 0 -2 -23 -38 -51 -80 -159 -236 -311 -608 -388 -949 -61 -272 -78 -446
        -87 -900 -3 -170 -7 -321 -8 -335 l-3 -25 -128 -3 c-120 -2 -131 -4 -162 -28
        -18 -14 -43 -44 -56 -67 -21 -41 -22 -49 -22 -367 0 -286 2 -331 18 -376 38
        -108 127 -173 267 -194 54 -8 852 -10 2885 -8 2782 3 2811 3 2862 23 86 33
        137 76 169 141 l29 59 3 340 c3 337 3 340 -20 385 -38 74 -78 90 -225 90
        l-123 0 0 68 c-1 239 -22 768 -35 877 -52 443 -200 875 -422 1229 -41 65 -72
        120 -70 122 9 10 124 24 272 34 397 28 607 79 819 200 151 86 249 185 320 320
        27 51 36 80 36 116 0 61 -27 122 -70 157 -18 15 -31 30 -29 32 2 2 58 26 124
        54 222 94 403 234 510 395 107 163 195 370 197 466 2 82 -47 130 -154 151 -32
        6 -58 14 -58 17 0 3 60 64 133 136 148 146 215 236 287 389 86 181 129 340
        149 552 9 99 15 278 12 362 -1 44 -52 100 -101 113 -63 17 -97 -3 -234 -136
        -406 -398 -891 -645 -1556 -794 -607 -136 -892 -261 -1143 -500 -255 -242
        -440 -558 -567 -970 -18 -58 -38 -117 -46 -132 l-14 -27 -67 31 c-371 168
        -859 248 -1269 207 -262 -26 -562 -104 -787 -206 -44 -19 -82 -31 -87 -27 -4
        5 -37 97 -73 205 -98 294 -168 439 -302 629 -186 262 -363 418 -627 551 -143
        72 -296 121 -670 215 -504 126 -690 189 -949 320 -259 131 -462 278 -676 489
        -79 77 -151 143 -160 147 -32 12 -77 8 -112 -10z m298 -550 c331 -273 803
        -499 1286 -615 83 -20 242 -59 355 -86 544 -131 787 -285 1042 -659 78 -115
        135 -230 198 -402 45 -122 110 -343 110 -372 0 -11 -33 -40 -89 -77 -139 -94
        -285 -214 -428 -354 -72 -70 -134 -123 -137 -118 -12 18 -75 30 -281 51 -110
        11 -243 25 -295 31 -265 28 -471 97 -612 205 -57 44 -118 113 -118 133 0 23
        66 42 257 75 109 19 228 44 265 56 109 33 158 88 158 175 0 36 -6 51 -26 72
        -25 24 -29 25 -107 19 -239 -18 -294 -18 -410 -2 -283 40 -483 130 -637 285
        -71 72 -95 105 -143 197 -31 61 -57 116 -57 122 0 5 41 20 90 32 l90 22 123
        -55 c194 -87 328 -127 493 -147 106 -13 180 -8 225 16 56 28 75 112 43 180
        -21 44 -67 65 -239 108 -292 73 -475 148 -646 261 -291 194 -475 462 -549 802
        -10 45 -16 83 -13 83 3 0 26 -17 52 -38z m8814 6 c-38 -208 -113 -398 -214
        -543 -66 -95 -222 -246 -330 -318 -178 -117 -371 -199 -647 -271 -188 -50
        -220 -63 -250 -101 -32 -40 -37 -80 -14 -123 43 -85 111 -99 295 -61 189 38
        305 76 493 160 l110 50 93 -25 c52 -14 96 -27 98 -30 11 -11 -114 -220 -165
        -276 -224 -248 -586 -365 -1041 -337 -89 6 -142 5 -157 -2 -57 -26 -74 -111
        -34 -175 44 -72 119 -98 436 -150 153 -25 225 -45 231 -62 6 -18 -55 -93 -114
        -139 -112 -88 -267 -153 -448 -189 -44 -8 -161 -22 -260 -31 -334 -28 -410
        -37 -453 -52 l-43 -14 -137 133 c-154 149 -309 277 -424 351 -43 27 -78 56
        -78 63 0 51 117 400 187 559 101 229 316 492 511 624 76 51 104 65 246 121
        159 63 301 104 646 189 327 80 438 115 645 200 175 73 309 140 436 217 100 60
        354 237 364 254 13 22 24 8 18 -22z m-4133 -2058 c410 -51 842 -240 1175 -515
        114 -94 314 -296 396 -400 255 -321 414 -680 519 -1166 23 -107 50 -302 50
        -361 0 -5 -1101 -8 -2446 -8 l-2445 0 6 73 c20 210 87 515 160 724 156 450
        414 824 770 1116 356 293 748 469 1185 532 106 16 517 19 630 5z m2145 -2955
        l0 -220 -2452 -3 -2453 -2 0 225 0 225 2453 -2 2452 -3 0 -220z m365 -515 c11
        -7 15 -43 18 -169 3 -88 1 -185 -2 -215 -7 -49 -10 -55 -38 -65 -48 -17 -5602
        -15 -5616 2 -10 12 -17 206 -14 370 l2 87 2818 0 c1706 0 2823 -4 2832 -10z"/>
    </g>
</svg>